Coordinates
version=1
nRows=9
nColumns=24
inDegrees=yes

Units are S.I. units (second, meters, Newtons, ...)
Angles are in degrees.

endheader
time	pelvis_tilt	pelvis_list	pelvis_rotation	pelvis_tx	pelvis_ty	pelvis_tz	hip_flexion_r	hip_adduction_r	hip_rotation_r	knee_angle_r	ankle_angle_r	subtalar_angle_r	mtp_angle_r	hip_flexion_l	hip_adduction_l	hip_rotation_l	knee_angle_l	ankle_angle_l	subtalar_angle_l	mtp_angle_l	lumbar_extension	lumbar_bending	lumbar_rotation
      2.82000000	     50.37334374	      1.65901667	     -2.49006480	      0.75861153	      0.96107458	     -0.27743533	     16.74570412	    -14.64228349	      8.41486666	    -63.22960397	      7.24919497	     16.63441676	    -33.07986485	     15.53254193	    -10.83567056	      6.91083266	   -109.87451525	      1.18359708	     14.32491928	    -66.07922122	      0.00000000	      0.00000000	      0.00000000
      2.83000000	     50.38301536	      1.64737694	     -2.52154696	      0.75863279	      0.96098765	     -0.27767713	     16.73202432	    -14.67724547	      8.39572564	    -63.16262079	      7.25427475	     16.62103810	    -33.03966126	     15.51223955	    -10.71287126	      7.00580937	   -108.59812754	      1.99017261	     13.72108841	    -63.03865505	      0.00000000	      0.00000000	      0.00000000
      2.84000000	     50.40264040	      1.64751075	     -2.56128263	      0.75870573	      0.96123707	     -0.27783659	     16.69610614	    -14.71355802	      8.38466509	    -63.09208426	      7.25594039	     16.60989281	    -33.02067253	     15.47882665	    -10.58727163	      6.99941415	   -107.20574403	      2.80347051	     13.08801201	    -59.64957632	      0.00000000	      0.00000000	      0.00000000
      2.85000000	     50.41887801	      1.66000515	     -2.60002894	      0.75880577	      0.96168167	     -0.27792615	     16.65740201	    -14.74950814	      8.38097615	    -63.02094450	      7.24970495	     16.59624741	    -33.02799639	     15.40668706	    -10.47252266	      6.91002893	   -105.61419340	      3.52465595	     12.46013788	    -56.15631796	      0.00000000	      0.00000000	      0.00000000
      2.86000000	     50.41573913	      1.68244167	     -2.62976061	      0.75885707	      0.96192599	     -0.27799839	     16.64184429	    -14.78242030	      8.38437481	    -62.95200948	      7.23169475	     16.57515113	    -33.06259640	     15.26331255	    -10.37944694	      6.76703291	   -103.71666280	      4.07855667	     11.86531445	    -52.80213457	      0.00000000	      0.00000000	      0.00000000
      2.87000000	     50.38298600	      1.71167770	     -2.64917492	      0.75881352	      0.96186639	     -0.27805091	     16.66623769	    -14.80843768	      8.39411556	    -62.88515386	      7.19923120	     16.54218845	    -33.12106163	     15.02830641	    -10.31219936	      6.59240664	   -101.43424259	      4.42497011	     11.32117169	    -49.80542605	      0.00000000	      0.00000000	      0.00000000
      2.88000000	     50.31980544	      1.74535810	     -2.66420429	      0.75868308	      0.96175672	     -0.27802529	     16.72813245	    -14.82409084	      8.40907861	    -62.81664692	      7.15140342	     16.49424195	    -33.19599443	     14.70347880	    -10.26946401	      6.38731810	    -98.75177366	      4.56218350	     10.83296561	    -47.34000133	      0.00000000	      0.00000000	      0.00000000
      2.89000000	     50.23378184	      1.78223964	     -2.68397118	      0.75851394	      0.96181307	     -0.27788957	     16.80824846	    -14.82845599	      8.42869704	    -62.74060842	      7.08958804	     16.43019466	    -33.27696612	     14.30942060	    -10.25003483	      6.13298671	    -95.71770924	      4.52163342	     10.39441055	    -45.52257240	      0.00000000	      0.00000000	      0.00000000
      2.90000000	     50.13831825	      1.82181488	     -2.71647847	      0.75837831	      0.96203002	     -0.27768212	     16.88206299	    -14.82348857	      8.45309774	    -62.65187004	      7.01768604	     16.35152540	    -33.35186543	     13.87488695	    -10.25760675	      5.80275791	    -92.41642986	      4.35429104	      9.99239516	    -44.40859871	      0.00000000	      0.00000000	      0.00000000
